<?xml version="1.0" encoding="UTF-8" standalone="no"?><!DOCTYPE svg PUBLIC "-//W3C//DTD SVG 1.1//EN" "http://www.w3.org/Graphics/SVG/1.1/DTD/svg11.dtd"><svg width="100%" height="100%" viewBox="0 0 2816 1536" version="1.1" xmlns="http://www.w3.org/2000/svg" xmlns:xlink="http://www.w3.org/1999/xlink" xml:space="preserve" xmlns:serif="http://www.serif.com/" style="fill-rule:evenodd;clip-rule:evenodd;stroke-linejoin:round;stroke-miterlimit:2;"><g><g><g><path d="M66.129,1070.219l0,-601.684l327.012,0c57.721,-0 113.077,22.929 153.892,63.744c40.815,40.815 63.744,96.171 63.744,153.892l0,9.156c0,79.286 -44.062,148.281 -109.035,183.833l128.05,191.059l-204.76,0l-103.798,-165.479l-70.111,0l0,165.479l-184.994,0Zm288.968,-457.6l-98.596,0l0,154.185l98.596,-0c42.216,-0 76.439,-34.223 76.439,-76.439l0,-1.306c0,-42.216 -34.223,-76.439 -76.439,-76.439Z" style="fill:#325d8c;"/><path d="M1090.505,1068.66l-218.261,-0l0,-601.684l389.746,0c41.083,-0 80.483,16.32 109.532,45.37c29.05,29.05 45.37,68.45 45.37,109.532l0,0.002c-6.736,112.477 -75.403,109.225 -87.338,81.745c-7.635,-17.579 -28.463,-40.689 -48.407,-18.901c-25.951,28.35 6.306,41.66 23.02,47.195c15.353,10.145 116.681,51.601 87.748,93.199c-9.469,13.615 -36.51,11.565 -52.197,-3.99c-6.641,-6.586 -13.387,-13.598 -23.402,-13.598c-14.866,0 -26.935,12.069 -26.935,26.935c0,14.866 12.069,26.935 26.935,26.935c0.88,0 38.612,2.033 38.612,2.033c0,0 32.293,2.191 56.932,20.383c18.958,13.998 24.726,31.898 26.869,44.723c2.142,12.825 4.352,53.679 -28.108,88.636c-5.969,6.429 -28.093,33.215 -72.798,46.158c-25.978,7.521 -58.38,4.658 -102.808,5.325c-57.223,0.859 -144.73,-0.086 -144.509,0Zm124.901,-242.765l-160.826,-0l0,101.919l160.826,-0c13.368,0 26.189,-5.311 35.642,-14.763c9.453,-9.453 14.763,-22.274 14.763,-35.642l0,-1.108c-0,-13.368 -5.311,-26.189 -14.763,-35.642c-9.453,-9.453 -22.274,-14.763 -35.642,-14.763Zm-21.049,-228.21l-139.778,0l0,101.919l139.778,-0c13.368,0 26.189,-5.311 35.642,-14.763c9.453,-9.453 14.763,-22.274 14.763,-35.642l0,-1.108c-0,-13.368 -5.311,-26.189 -14.763,-35.642c-9.453,-9.453 -22.274,-14.763 -35.642,-14.763Z" style="fill:#325d8c;"/><path d="M1452.888,626.237l0.195,-157.701l389.746,0c41.083,-0 80.483,16.32 109.532,45.37c29.05,29.05 45.37,68.45 45.37,109.532l0,0.002c0,38.705 -15.375,75.825 -42.744,103.193c-10.09,10.09 -21.504,18.549 -33.835,25.209c61.044,17.742 105.659,74.09 105.659,140.859l0,30.849c-0,81.003 -65.666,146.669 -146.669,146.669l-427.06,-0l0,-1.857c7.36,-30.674 49.934,-48.246 45.458,-182.86c-0.895,-26.921 44.706,-105.8 69.078,-121.31c24.372,-15.509 33.731,-35.77 17.331,-51.51c-18.669,-17.918 -43.616,9.972 -47.162,33.425c-6.291,41.619 -42.177,61.4 -45.895,64.063c-3.718,2.663 -31.469,14.147 -38.811,-49.852l0,-11.896c0.625,-49.241 16.616,-71.475 21.76,-81.262c5.849,-11.128 2.275,-36.423 -21.955,-40.924Zm322.308,-26.992l-139.778,0l0,101.919l139.778,-0c13.368,0 26.189,-5.311 35.642,-14.763c9.453,-9.453 14.763,-22.274 14.763,-35.642l0,-1.108c-0,-13.368 -5.311,-26.189 -14.763,-35.642c-9.453,-9.453 -22.274,-14.763 -35.642,-14.763Zm21.049,228.21l-160.826,-0l0,101.919l160.826,-0c13.368,0 26.189,-5.311 35.642,-14.763c9.453,-9.453 14.763,-22.274 14.763,-35.642l0,-1.108c-0,-13.368 -5.311,-26.189 -14.763,-35.642c-9.453,-9.453 -22.274,-14.763 -35.642,-14.763Z" style="fill:#325d8c;"/><rect x="2056.895" y="468.536" width="181.164" height="601.684" style="fill:#325d8c;"/><path d="M2415.218,616.305l-147.075,0l0,-147.77l481.728,0l0,147.77l-153.49,0l0,453.914l-181.164,0l0,-453.914Z" style="fill:#325d8c;"/><rect x="660.997" y="468.536" width="181.164" height="601.684" style="fill:#325d8c;"/></g></g></g></svg>